<?xml version="1.0" standalone="no"?>
<!DOCTYPE svg PUBLIC "-//W3C//DTD SVG 20010904//EN"
 "http://www.w3.org/TR/2001/REC-SVG-20010904/DTD/svg10.dtd">
<svg version="1.0" xmlns="http://www.w3.org/2000/svg"
 width="400.000000pt" height="400.000000pt" viewBox="0 0 400.000000 400.000000"
 preserveAspectRatio="xMidYMid meet">
<metadata>
Created by potrace 1.14, written by Peter Selinger 2001-2017
</metadata>
<g transform="translate(0.000000,400.000000) scale(0.100000,-0.100000)"
fill="#000000" stroke="none">
<path d="M1605 3976 c-16 -13 -70 -51 -120 -84 -49 -34 -130 -89 -180 -123
-49 -34 -178 -120 -285 -192 -107 -71 -226 -151 -265 -178 -38 -26 -161 -109
-272 -184 -111 -75 -206 -142 -212 -149 -15 -18 -3 -46 19 -46 10 0 20 3 22 8
4 8 124 92 133 92 4 0 12 6 20 13 13 12 186 132 256 177 97 62 474 325 477
332 2 4 8 8 13 8 5 0 31 15 57 33 26 18 110 76 187 127 77 52 142 97 145 101
3 3 31 23 63 43 31 20 57 39 57 41 0 3 -19 5 -42 5 -30 0 -52 -8 -73 -24z"/>
<path d="M1916 3981 c-17 -19 -17 -20 13 -19 23 1 31 6 31 20 0 24 -22 23 -44
-1z"/>
<path d="M2030 3977 c0 -17 6 -23 25 -25 30 -2 32 8 5 31 -26 22 -30 22 -30
-6z"/>
<path d="M2280 3982 c13 -9 43 -31 65 -47 84 -63 275 -195 282 -195 3 0 16 -8
27 -19 12 -10 62 -46 111 -79 50 -34 142 -97 205 -141 63 -44 198 -136 300
-205 237 -160 324 -219 330 -226 21 -22 74 -51 88 -48 29 6 26 45 -5 65 -15 9
-30 20 -33 23 -3 3 -43 31 -90 62 -47 31 -119 80 -160 109 -41 29 -142 98
-225 154 -181 122 -353 240 -455 310 -41 28 -133 91 -205 140 -71 48 -137 94
-146 101 -9 8 -37 14 -65 13 l-49 0 25 -17z"/>
<path d="M3116 3247 c3 -10 9 -15 12 -12 3 3 0 11 -7 18 -10 9 -11 8 -5 -6z"/>
<path d="M3173 3206 c15 -15 27 -31 27 -35 0 -8 -42 -48 -183 -171 -28 -25
-100 -91 -160 -147 -60 -57 -112 -103 -116 -103 -4 0 -8 35 -8 78 -1 42 -1 87
-2 99 l-1 23 -739 0 -740 0 -6 -44 c-4 -24 -5 -69 -3 -100 2 -31 1 -56 -3 -56
-8 0 -56 40 -108 90 -20 19 -65 60 -101 90 -36 30 -67 58 -70 62 -3 3 -23 20
-45 38 -57 44 -155 141 -155 153 0 5 8 6 17 3 10 -4 14 -4 10 0 -4 4 -1 14 6
22 9 12 4 11 -23 -3 -40 -20 -298 -191 -320 -211 -14 -14 -16 -75 -4 -117 5
-17 8 -17 41 3 l35 21 51 -44 c46 -40 51 -47 51 -88 1 -35 4 -44 18 -43 15 2
18 -7 18 -47 0 -27 -4 -49 -8 -49 -16 0 -52 37 -52 52 0 9 -7 21 -15 28 -13
10 -15 9 -16 -11 l0 -24 -10 23 c-5 13 -15 22 -21 19 -7 -2 -20 3 -28 12 -8 9
-40 32 -70 51 -30 19 -62 42 -72 50 -35 31 -47 40 -58 40 -5 0 -10 7 -10 16 0
8 -4 13 -8 10 -5 -3 -18 2 -28 12 -10 9 -31 23 -46 31 -16 8 -28 18 -28 23 0
4 -9 8 -21 8 -24 0 -16 -17 14 -31 32 -13 57 -30 92 -61 16 -16 35 -28 41 -28
6 0 19 -9 29 -20 17 -18 17 -20 2 -14 -14 5 -17 0 -18 -27 -1 -19 -1 -40 0
-48 5 -29 -17 1 -23 34 -4 19 -11 35 -16 35 -5 0 -7 -11 -4 -25 6 -32 -8 -32
-22 0 -11 23 -10 25 30 33 l41 8 -35 19 c-19 10 -53 33 -74 51 -22 19 -45 34
-52 34 -6 0 -14 6 -17 14 -3 7 -15 16 -26 19 -19 5 -21 1 -21 -44 0 -27 -2
-49 -5 -49 -3 0 -24 14 -47 30 -22 17 -45 30 -50 30 -4 0 -8 -128 -8 -284 l0
-285 23 -6 c36 -11 288 -111 337 -134 l45 -22 -36 7 c-21 3 -39 1 -43 -4 -4
-6 2 -8 14 -5 26 7 25 -4 -3 -28 -12 -10 -17 -18 -10 -19 6 0 15 5 18 10 10
16 25 12 19 -5 -4 -8 -1 -21 5 -29 8 -9 8 -22 2 -38 -7 -19 -6 -29 7 -43 16
-17 16 -17 -8 -11 -14 3 -56 13 -94 21 -38 9 -112 27 -165 40 -52 14 -99 25
-103 25 -4 0 -8 -56 -8 -124 0 -110 2 -125 18 -130 9 -3 67 -12 127 -21 162
-23 220 -38 220 -55 0 -8 -10 -16 -23 -18 -12 -2 -22 -7 -22 -12 0 -5 -8 -11
-18 -14 -9 -2 1 -3 23 -1 l40 4 -39 -11 c-30 -8 -71 -8 -165 2 -69 7 -135 11
-146 8 -11 -2 35 -10 102 -17 67 -8 120 -17 118 -22 -3 -4 0 -11 6 -15 8 -4 9
-3 5 4 -8 13 24 16 63 5 21 -5 20 -7 -15 -19 -22 -8 -47 -14 -57 -14 -10 0
-15 -5 -12 -10 4 -6 -8 -10 -29 -10 -20 0 -36 -4 -36 -10 0 -6 -33 -10 -80
-10 l-80 0 0 -815 0 -815 2000 0 2000 0 0 525 c0 470 -2 526 -16 532 -13 5
-13 7 -2 14 10 7 9 9 -4 9 -10 0 -18 6 -18 13 0 8 -2 9 -8 1 -9 -15 -83 -9
-120 10 -24 13 -42 14 -113 7 -8 0 -24 -9 -35 -18 -10 -10 -41 -36 -68 -57
-47 -38 -50 -39 -89 -29 -27 8 -49 8 -69 1 -21 -7 -37 -7 -54 1 -14 6 -37 11
-52 11 l-27 0 -2 155 -3 155 43 1 c39 1 40 2 12 9 -29 7 -28 8 11 9 23 0 57
-5 75 -12 21 -8 46 -11 64 -6 l30 7 -36 1 c-21 0 -43 8 -50 18 -13 15 -11 16
18 10 50 -10 173 -18 138 -9 -29 8 -29 8 -7 16 12 4 22 12 22 17 0 5 16 9 35
9 22 0 35 5 35 13 0 7 20 17 45 23 47 11 61 0 23 -16 -17 -8 -8 -9 34 -4 51 5
57 4 52 -11 -5 -13 -2 -16 12 -13 12 2 18 11 17 25 -2 22 21 38 39 27 6 -4 5
-10 -3 -15 -11 -7 -11 -9 2 -9 9 0 20 7 23 16 4 10 13 13 26 9 20 -6 20 -2 20
569 0 454 -3 576 -12 576 -9 0 -8 4 2 10 11 7 7 10 -17 10 -18 0 -33 -4 -33
-10 0 -5 -5 -10 -11 -10 -5 0 -8 4 -4 10 3 5 -9 8 -30 6 -23 -1 -39 3 -44 12
-6 10 -10 11 -15 3 -15 -23 -44 -12 -51 20 -5 21 -12 29 -23 27 -10 -2 -17
-10 -17 -18 0 -11 -11 -15 -43 -14 -37 2 -42 -1 -37 -17 5 -15 1 -19 -19 -19
-33 0 -33 15 -1 36 14 9 25 24 25 33 1 14 2 14 14 -1 7 -10 18 -18 25 -18 15
0 14 27 -1 33 -10 4 -10 6 0 6 7 1 4 9 -8 21 -24 24 -26 40 -5 40 8 0 15 5 15
10 0 6 7 10 15 10 9 0 12 6 9 15 -4 8 -14 15 -24 15 -11 0 -17 7 -16 18 1 13
-5 16 -26 14 -23 -3 -28 1 -28 17 0 15 -6 21 -21 21 -14 0 -19 -5 -16 -14 8
-20 -4 -28 -20 -14 -19 15 -27 4 -13 -21 8 -16 8 -21 -3 -21 -7 0 -18 5 -24
11 -7 7 -9 3 -5 -17 3 -18 0 -29 -12 -36 -9 -5 -16 -20 -16 -33 0 -22 3 -24
25 -15 l26 10 -5 -50 c-2 -28 -1 -48 4 -45 4 3 11 -2 14 -11 8 -20 8 -24 -1
-23 -20 3 -34 -2 -29 -10 3 -5 -3 -11 -14 -14 -11 -3 -23 -1 -26 5 -3 5 -13 0
-21 -11 -8 -12 -19 -18 -25 -15 -6 4 -14 1 -18 -7 -7 -10 -11 -10 -24 0 -12
10 -16 10 -16 2 0 -20 -24 -38 -58 -46 l-32 -7 0 132 0 131 22 -15 c38 -27 48
-20 48 29 0 38 6 51 36 85 42 46 47 47 81 20 14 -11 29 -17 34 -14 5 3 9 33 9
67 -1 62 -1 62 -45 95 -24 17 -47 32 -50 32 -3 0 -36 23 -74 50 -38 28 -73 50
-79 50 -5 0 -15 7 -22 15 -10 12 -66 43 -115 63 -5 2 2 -8 18 -22z m-509 -326
c17 -17 -5 -28 -66 -35 -62 -7 -115 -22 -107 -29 2 -3 24 -7 49 -10 25 -4 64
-9 88 -12 l42 -6 0 -47 0 -47 -102 -91 c-57 -49 -161 -141 -233 -203 -71 -62
-166 -145 -209 -184 -44 -39 -94 -81 -113 -94 l-34 -23 -62 52 c-34 29 -83 71
-108 94 -25 22 -74 65 -109 95 -90 77 -144 124 -150 130 -3 3 -61 54 -129 114
l-123 109 6 46 c3 25 11 48 18 52 6 4 47 10 90 14 109 10 105 29 -9 41 -74 8
-88 12 -91 28 -4 17 9 18 326 15 182 -2 333 -2 335 1 9 9 682 -1 691 -10z
m1000 -162 c3 -16 2 -28 -3 -28 -12 0 -24 37 -16 50 3 5 1 10 -5 10 -6 0 -8 5
-4 11 8 14 18 -2 28 -43z m-74 16 c0 -8 -5 -12 -10 -9 -6 4 -8 11 -5 16 9 14
15 11 15 -7z m-3098 -76 c-7 -7 -12 -8 -12 -2 0 14 12 26 19 19 2 -3 -1 -11
-7 -17z m1549 -625 c24 -21 102 -89 174 -153 71 -63 135 -119 142 -125 100
-86 133 -120 133 -137 0 -10 -4 -17 -9 -14 -11 7 -23 -37 -15 -58 3 -9 10 -14
14 -11 5 3 12 -4 15 -16 6 -16 1 -27 -16 -39 -21 -17 -22 -19 -6 -35 20 -19
21 -31 5 -41 -8 -5 -9 -2 -5 10 5 12 3 16 -5 13 -7 -2 -12 -9 -11 -15 2 -6
-11 -20 -27 -32 l-29 -21 -11 21 c-13 25 -27 25 -71 3 -33 -17 -33 -18 -9 -21
25 -4 40 -18 40 -37 0 -5 -4 -4 -9 4 -6 10 -22 12 -55 9 -35 -4 -46 -2 -46 8
0 8 -7 14 -15 14 -8 0 -15 -4 -15 -9 0 -16 -61 -32 -76 -20 -14 12 -64 -15
-64 -35 0 -6 -6 -2 -12 9 -11 19 -11 19 -19 0 -5 -14 -8 -4 -9 30 -1 68 -11
179 -16 184 -2 2 -4 -36 -5 -85 0 -49 -4 -98 -9 -109 -7 -16 -9 -13 -9 15 1
19 -4 69 -9 110 l-9 75 -2 -75 c-2 -118 -12 -142 -67 -163 -25 -9 -50 -14 -55
-11 -5 3 -9 0 -9 -5 0 -6 -20 -11 -44 -11 -24 0 -59 -7 -79 -15 -19 -8 -37
-12 -40 -9 -11 11 -77 -9 -77 -23 0 -11 -22 -14 -127 -12 l-128 1 -5 -28 -6
-29 -8 30 -9 30 -7 -25 c-3 -14 -7 50 -8 142 l-2 168 41 37 c23 21 47 43 53
48 6 6 42 37 81 70 38 33 85 74 105 92 155 138 388 332 401 332 8 1 35 -16 60
-36z m512 -90 c-7 -2 -21 -2 -30 0 -10 3 -4 5 12 5 17 0 24 -2 18 -5z m172
-53 c-3 -5 -12 -10 -18 -10 -7 0 -6 4 3 10 19 12 23 12 15 0z m-2480 -250 c-3
-5 -12 -10 -18 -10 -7 0 -6 4 3 10 19 12 23 12 15 0z m3322 -102 c-3 -8 -6 -5
-6 6 -1 11 2 17 5 13 3 -3 4 -12 1 -19z m0 -125 c-2 -21 -4 -4 -4 37 0 41 2
58 4 38 2 -21 2 -55 0 -75z m-2327 -13 c0 -27 -3 -29 -35 -28 l-35 1 32 28
c18 16 34 28 36 29 1 0 2 -13 2 -30z m0 -94 l0 -52 -42 -12 c-50 -15 -114 -11
-110 6 3 17 -7 15 -26 -4 -11 -12 -17 -13 -20 -5 -3 9 -8 9 -20 -1 -15 -12
-16 -11 -3 4 7 10 17 16 21 13 5 -3 11 4 15 15 3 11 10 20 15 20 5 0 22 11 38
25 45 38 79 53 107 47 23 -4 25 -9 25 -56z m1127 32 c-3 -8 -6 -5 -6 6 -1 11
2 17 5 13 3 -3 4 -12 1 -19z m-30 -70 c-3 -8 -6 -5 -6 6 -1 11 2 17 5 13 3 -3
4 -12 1 -19z m-1247 -58 c-13 -8 -12 -10 3 -10 9 0 17 3 17 8 0 4 20 6 44 4
29 -3 43 -8 40 -16 -2 -6 -12 -12 -22 -13 -35 -2 -79 -10 -90 -17 -6 -3 -14
-2 -17 4 -7 11 -88 11 -102 1 -5 -3 -8 -13 -8 -21 0 -10 -8 -14 -22 -13 -13 2
-23 -2 -23 -7 0 -6 -5 -10 -12 -10 -6 0 -3 9 8 21 10 11 20 16 22 10 2 -6 8
-11 14 -11 6 0 8 6 5 14 -7 18 31 59 49 52 8 -3 14 -1 14 4 0 6 21 10 48 10
34 0 43 -3 32 -10z m148 -23 c5 -24 -15 -21 -21 4 -3 13 -1 19 6 16 7 -2 13
-11 15 -20z m1750 -23 c-3 -14 -5 -12 -10 9 -3 19 -2 25 4 19 6 -6 8 -18 6
-28z m-1883 -374 c11 -5 16 -9 10 -10 -5 -1 -1 -5 10 -10 14 -6 0 -9 -46 -9
-49 -1 -68 3 -72 13 -9 23 58 33 98 16z m178 -285 c99 -30 88 -34 -80 -35 -90
0 -163 3 -163 6 0 3 10 14 23 25 28 23 149 26 220 4z m223 -336 c3 -5 2 -18
-1 -29 -6 -19 -15 -20 -213 -20 -142 1 -202 4 -190 11 9 5 15 16 12 23 -10 25
19 31 176 36 147 5 203 -1 216 -21z"/>
<path d="M1038 1203 c7 -3 16 -2 19 1 4 3 -2 6 -13 5 -11 0 -14 -3 -6 -6z"/>
<path d="M0 3089 c0 -25 6 -33 30 -42 17 -6 32 -18 35 -27 3 -9 15 -16 26 -17
12 -1 29 -9 39 -18 10 -9 21 -12 24 -7 6 10 -35 42 -54 42 -5 0 -10 6 -10 14
0 8 -7 16 -15 20 -8 3 -15 11 -15 18 0 7 -14 21 -30 30 l-30 17 0 -30z"/>
<path d="M1957 3093 c-4 -3 -7 -13 -7 -22 1 -13 3 -13 11 2 11 19 8 33 -4 20z"/>
<path d="M1975 3062 c-4 -18 -4 -36 -1 -39 3 -4 6 2 7 13 0 18 1 18 9 -1 l9
-20 0 20 c0 11 -4 29 -8 40 -7 17 -9 16 -16 -13z"/>
<path d="M2010 3040 c0 -24 15 -27 24 -4 9 22 8 24 -9 24 -8 0 -15 -9 -15 -20z"/>
<path d="M1941 3034 c0 -11 3 -14 6 -6 3 7 2 16 -1 19 -3 4 -6 -2 -5 -13z"/>
<path d="M3882 2702 c3 -11 2 -22 -2 -24 -5 -2 -10 -12 -12 -23 -3 -17 2 -19
42 -16 41 3 93 20 63 21 -16 0 -53 36 -45 44 3 3 0 6 -6 6 -5 0 -18 3 -28 7
-14 5 -16 2 -12 -15z"/>
<path d="M3728 1403 c7 -3 16 -2 19 1 4 3 -2 6 -13 5 -11 0 -14 -3 -6 -6z"/>
<path d="M3773 1393 c-20 -8 -15 -23 7 -23 11 0 20 7 20 15 0 15 -6 17 -27 8z"/>
<path d="M3828 1383 c7 -3 16 -2 19 1 4 3 -2 6 -13 5 -11 0 -14 -3 -6 -6z"/>
<path d="M3680 1340 c-45 -7 -45 -7 15 -8 33 0 69 3 80 8 16 7 13 8 -15 8 -19
-1 -55 -4 -80 -8z"/>
<path d="M3930 1136 c0 -2 8 -10 18 -17 15 -13 16 -12 3 4 -13 16 -21 21 -21
13z"/>
</g>
</svg>
